<svg width="56.532" height="8.275" viewBox="0 0 56.532 8.275" xmlns="http://www.w3.org/2000/svg"><path d="M14.973 1.531v5.162h1.756c1.062 0 1.693-.559 1.693-1.475 0-.595-.32-1.077-.898-1.267.416-.222.646-.613.646-1.106 0-.854-.627-1.314-1.566-1.314zm1.756 2.22h-1.15V2.074h1.014c.654 0 1.008.307 1.008.832 0 .544-.361.843-.872.843zm.029 2.39h-1.18V4.273h1.271c.606 0 .967.358.967.928 0 .628-.368.942-1.058.942zM20.66 6.755c.46 0 .862-.197 1.132-.632v.57h.577v-3.65h-.577v2.135c0 .693-.38 1.062-.975 1.062-.526 0-.854-.328-.854-.975V3.042h-.577v2.3c0 .909.493 1.413 1.274 1.413zM23.942 8.255h.635l2.022-5.213h-.613L24.88 5.948l-1.168-2.906h-.657l1.53 3.64zM29.22 6.693h.577v-2.14c0-.69.38-1.058.975-1.058.526 0 .854.328.854.975v2.223h.577v-2.3c0-.909-.493-1.413-1.274-1.413-.45 0-.869.201-1.132.628v-.566h-.577zM34.875 6.755c1.059 0 1.785-.825 1.785-1.887 0-1.063-.726-1.888-1.785-1.888-1.062 0-1.789.825-1.789 1.888 0 1.062.727 1.887 1.789 1.887zm0-.511c-.763 0-1.183-.606-1.183-1.376 0-.774.42-1.377 1.183-1.377.763 0 1.18.606 1.18 1.377 0 .773-.42 1.376-1.18 1.376zM37.09 3.042l1.078 3.65h.54l.916-2.84.935 2.84h.54l1.084-3.65h-.62l-.756 2.771-.909-2.77h-.518l-.91 2.77-.759-2.77z"/></svg>