<svg width="134.293" height="33.968" viewBox="0 0 134.293 33.968" xmlns="http://www.w3.org/2000/svg"><g fill="#fff"><path d="M5.488 13.896c1.627 0 2.917-.63 3.614-1.867l.105 1.717h1.035V8.31H6.448v1.087h2.571v.135c0 1.597-1.072 3.202-3.433 3.202-2.557 0-3.75-1.665-3.75-4.311 0-2.707 1.44-4.274 3.765-4.274 1.866 0 2.954.81 3.254 2.362h1.342c-.36-2.227-1.927-3.517-4.604-3.517C2.467 2.994.48 5.17.48 8.468c0 3.426 1.912 5.428 5.008 5.428zM12.453 4.629c.42 0 .773-.352.773-.78a.782.782 0 00-.773-.78.784.784 0 00-.78.78c0 .428.353.78.78.78zm-.63 9.117h1.245V6.248h-1.244zM13.998 6.248l3.051 7.498h1.042l3.06-7.498h-1.328l-2.219 5.893-2.227-5.893zM25.034 13.896c1.837 0 3.142-.825 3.531-2.602h-1.26c-.284 1.05-1.094 1.515-2.226 1.515-1.424 0-2.362-.922-2.452-2.512h6.006c.022-.27.03-.517.03-.787 0-2.19-1.402-3.412-3.449-3.412-2.22 0-3.854 1.65-3.854 3.974 0 2.332 1.425 3.824 3.674 3.824zm.15-6.725c1.312 0 2.204.757 2.234 2.136h-4.73c.254-1.29 1.191-2.136 2.496-2.136zM36.168 17c2.04 0 3.306-1.245 3.306-3.517V6.248h-1.237v4.356c0 1.312-.87 2.167-2.04 2.167-1.154 0-1.829-.705-1.829-1.987V6.248h-1.244v4.739c0 1.747 1.042 2.879 2.759 2.879a2.81 2.81 0 002.354-1.23v1.042c0 1.575-.727 2.31-2.077 2.31-1.124 0-1.71-.473-1.874-1.38h-1.2C33.311 16.093 34.353 17 36.168 17zM44.483 13.896c2.166 0 3.86-1.702 3.86-3.891 0-2.197-1.694-3.907-3.853-3.907-2.167 0-3.869 1.702-3.869 3.892 0 2.196 1.702 3.906 3.862 3.906zm.007-1.095c-1.47 0-2.594-1.192-2.594-2.811 0-1.605 1.125-2.797 2.587-2.797 1.47 0 2.594 1.192 2.594 2.812 0 1.604-1.125 2.796-2.587 2.796zM52.197 13.896a2.81 2.81 0 002.355-1.23v1.08h1.237V6.248h-1.237v4.379c0 1.312-.87 2.167-2.04 2.167-1.14 0-1.829-.713-1.829-1.987V6.248h-1.245v4.761c0 1.755 1.05 2.887 2.76 2.887zM57.446 13.746h1.214v-3.614c0-1.68.908-2.796 2.152-2.796.292 0 .51.045.727.12V6.202a2.94 2.94 0 00-.727-.082c-.937 0-1.732.592-2.144 1.634V6.248h-1.222zM65.948 13.746h1.244v-1.102c.608.84 1.47 1.252 2.49 1.252 2.016 0 3.508-1.485 3.508-3.906 0-2.407-1.484-3.892-3.5-3.892-1.02 0-1.89.413-2.498 1.253V3.144h-1.244zm3.599-.945c-1.47 0-2.46-1.072-2.46-2.804 0-1.732.998-2.804 2.475-2.804 1.402 0 2.361 1.072 2.361 2.812 0 1.724-.967 2.796-2.376 2.796zM77.112 13.896a2.81 2.81 0 002.354-1.23v1.08h1.237V6.248h-1.237v4.379c0 1.312-.87 2.167-2.04 2.167-1.14 0-1.829-.713-1.829-1.987V6.248h-1.244v4.761c0 1.755 1.05 2.887 2.759 2.887zM84.617 13.896c1.791 0 2.811-.945 2.811-2.182 0-2.811-4.228-1.792-4.228-3.614 0-.532.45-1.004 1.297-1.004.96 0 1.484.457 1.522 1.282h1.132c-.015-1.447-.9-2.28-2.594-2.28-1.605 0-2.542.93-2.542 2.077 0 2.864 4.206 1.747 4.206 3.644 0 .652-.525 1.095-1.574 1.087-1.155 0-1.68-.495-1.717-1.372h-1.147c.06 1.492 1.087 2.362 2.834 2.362zM89.153 4.629c.42 0 .772-.352.772-.78a.782.782 0 00-.772-.78.784.784 0 00-.78.78c0 .428.352.78.78.78zm-.63 9.117h1.244V6.248h-1.244zM91.424 13.746h1.245V9.367c0-1.312.87-2.166 2.04-2.166 1.139 0 1.829.712 1.829 1.986v4.559h1.244V8.977c0-1.754-1.057-2.879-2.759-2.879a2.81 2.81 0 00-2.354 1.23v-1.08h-1.245zM102.603 13.896c1.837 0 3.141-.825 3.531-2.602h-1.26c-.284 1.05-1.094 1.515-2.226 1.515-1.424 0-2.362-.922-2.452-2.512h6.006c.022-.27.03-.517.03-.787 0-2.19-1.402-3.412-3.449-3.412-2.22 0-3.854 1.65-3.854 3.974 0 2.332 1.425 3.824 3.674 3.824zm.15-6.725c1.312 0 2.204.757 2.234 2.136h-4.73c.254-1.29 1.191-2.136 2.496-2.136zM109.673 13.896c1.792 0 2.812-.945 2.812-2.182 0-2.811-4.229-1.792-4.229-3.614 0-.532.45-1.004 1.297-1.004.96 0 1.485.457 1.522 1.282h1.132c-.015-1.447-.9-2.28-2.594-2.28-1.604 0-2.541.93-2.541 2.077 0 2.864 4.206 1.747 4.206 3.644 0 .652-.525 1.095-1.575 1.087-1.154 0-1.68-.495-1.717-1.372h-1.147c.06 1.492 1.087 2.362 2.834 2.362zM115.836 13.896c1.792 0 2.812-.945 2.812-2.182 0-2.811-4.229-1.792-4.229-3.614 0-.532.45-1.004 1.297-1.004.96 0 1.485.457 1.522 1.282h1.132c-.015-1.447-.9-2.28-2.594-2.28-1.604 0-2.542.93-2.542 2.077 0 2.864 4.207 1.747 4.207 3.644 0 .652-.525 1.095-1.575 1.087-1.155 0-1.68-.495-1.717-1.372h-1.147c.06 1.492 1.087 2.362 2.834 2.362z"/></g><g fill="#fff"><path d="M2.894 30.786c1.237 0 2.077-.435 2.707-1.417l.067 1.267H6.71v-4.64c0-1.875-1.154-3.007-2.961-3.007-1.575 0-2.677.825-2.97 2.227l1.17.015c.218-.72.81-1.155 1.74-1.155 1.154 0 1.844.72 1.844 1.987v.54a6.388 6.388 0 00-2.167-.39c-1.889 0-2.999.922-2.991 2.354-.008 1.35.907 2.22 2.519 2.22zM1.619 28.5c-.007-.75.63-1.29 1.8-1.29.772 0 1.394.128 2.1.428-.098 1.102-.93 2.092-2.408 2.092-1.02 0-1.499-.495-1.492-1.23zM8.247 30.636h1.245v-4.378c0-1.312.87-2.167 2.04-2.167 1.139 0 1.829.712 1.829 1.987v4.558h1.244v-4.768c0-1.755-1.057-2.88-2.759-2.88a2.81 2.81 0 00-2.354 1.23v-1.08H8.247zM21.6 30.786c1.237 0 2.077-.435 2.707-1.417l.067 1.267h1.042v-4.64c0-1.875-1.154-3.007-2.961-3.007-1.575 0-2.677.825-2.969 2.227l1.17.015c.217-.72.81-1.155 1.739-1.155 1.155 0 1.844.72 1.844 1.987v.54a6.388 6.388 0 00-2.166-.39c-1.89 0-3 .922-2.992 2.354-.007 1.35.907 2.22 2.52 2.22zM20.326 28.5c-.008-.75.63-1.29 1.8-1.29.771 0 1.394.128 2.098.428-.097 1.102-.93 2.092-2.406 2.092-1.02 0-1.5-.495-1.492-1.23zM33.776 30.636V20.035H32.54v4.206c-.607-.84-1.47-1.252-2.49-1.252-2.023 0-3.508 1.484-3.508 3.906 0 2.407 1.485 3.891 3.501 3.891 1.02 0 1.89-.412 2.497-1.252v1.102zm-3.606-.944c-1.402 0-2.362-1.073-2.362-2.812 0-1.724.96-2.797 2.377-2.797 1.462 0 2.459 1.073 2.459 2.804 0 1.732-.997 2.805-2.474 2.805zM42.256 30.636V20.035h-1.237v4.206c-.608-.84-1.47-1.252-2.49-1.252-2.024 0-3.508 1.484-3.508 3.906 0 2.407 1.484 3.891 3.501 3.891 1.02 0 1.89-.412 2.497-1.252v1.102zm-3.606-.944c-1.403 0-2.362-1.073-2.362-2.812 0-1.724.96-2.797 2.377-2.797 1.462 0 2.459 1.073 2.459 2.804 0 1.732-.997 2.805-2.474 2.805zM43.913 30.636h1.214v-3.614c0-1.679.908-2.796 2.152-2.796.293 0 .51.045.727.12v-1.252a2.94 2.94 0 00-.727-.083c-.937 0-1.732.593-2.144 1.635v-1.507h-1.222zM52.197 30.786c1.837 0 3.142-.825 3.532-2.601h-1.26c-.285 1.05-1.094 1.514-2.227 1.514-1.424 0-2.361-.922-2.451-2.512h6.005c.023-.27.03-.517.03-.787 0-2.19-1.402-3.411-3.449-3.411-2.219 0-3.853 1.65-3.853 3.973 0 2.332 1.424 3.824 3.673 3.824zm.15-6.725c1.312 0 2.205.757 2.235 2.137H49.85c.255-1.29 1.192-2.137 2.496-2.137zM59.268 30.786c1.791 0 2.811-.945 2.811-2.182 0-2.811-4.228-1.792-4.228-3.613 0-.533.45-1.005 1.297-1.005.96 0 1.484.457 1.522 1.282h1.132c-.015-1.447-.9-2.28-2.594-2.28-1.605 0-2.542.93-2.542 2.078 0 2.864 4.206 1.746 4.206 3.643 0 .653-.525 1.095-1.574 1.087-1.155 0-1.68-.494-1.717-1.372h-1.147c.06 1.492 1.087 2.362 2.834 2.362zM65.43 30.786c1.792 0 2.812-.945 2.812-2.182 0-2.811-4.228-1.792-4.228-3.613 0-.533.45-1.005 1.297-1.005.96 0 1.484.457 1.522 1.282h1.132c-.015-1.447-.9-2.28-2.594-2.28-1.605 0-2.542.93-2.542 2.078 0 2.864 4.206 1.746 4.206 3.643 0 .653-.525 1.095-1.574 1.087-1.155 0-1.68-.494-1.717-1.372h-1.148c.06 1.492 1.088 2.362 2.835 2.362zM76.017 30.786c2.167 0 3.861-1.702 3.861-3.891 0-2.197-1.694-3.906-3.854-3.906-2.166 0-3.868 1.702-3.868 3.891 0 2.197 1.702 3.906 3.861 3.906zm.007-1.094c-1.469 0-2.594-1.193-2.594-2.812 0-1.604 1.125-2.797 2.587-2.797 1.47 0 2.594 1.193 2.594 2.812 0 1.604-1.125 2.797-2.587 2.797zM81.025 30.636h1.245v-4.378c0-1.312.87-2.167 2.04-2.167 1.139 0 1.829.712 1.829 1.987v4.558h1.244v-4.768c0-1.755-1.057-2.88-2.759-2.88a2.81 2.81 0 00-2.354 1.23v-1.08h-1.245zM88.98 30.636h1.245V20.035H88.98zM92.511 21.52c.42 0 .773-.353.773-.78a.782.782 0 00-.773-.78.784.784 0 00-.78.78c0 .427.353.78.78.78zm-.63 9.116h1.245V23.14h-1.244zM94.783 30.636h1.245v-4.378c0-1.312.87-2.167 2.04-2.167 1.139 0 1.828.712 1.828 1.987v4.558h1.245v-4.768c0-1.755-1.057-2.88-2.759-2.88a2.81 2.81 0 00-2.354 1.23v-1.08h-1.245zM105.962 30.786c1.837 0 3.141-.825 3.531-2.601h-1.26c-.284 1.05-1.094 1.514-2.226 1.514-1.425 0-2.362-.922-2.452-2.512h6.006c.022-.27.03-.517.03-.787 0-2.19-1.402-3.411-3.45-3.411-2.218 0-3.853 1.65-3.853 3.973 0 2.332 1.425 3.824 3.674 3.824zm.15-6.725c1.312 0 2.204.757 2.234 2.137h-4.73c.254-1.29 1.191-2.137 2.496-2.137z"/></g></svg>