<svg width="126.684" height="10.921" viewBox="0 0 126.684 10.921" xmlns="http://www.w3.org/2000/svg"><g fill="#fff"><path d="M.984 2.074v6.992h1.019V6.144h1.053c1.459 0 2.458-.722 2.458-2.033 0-1.285-.994-2.037-2.413-2.037zm2.082 3.135H2.003v-2.2h1.063c.935 0 1.4.415 1.4 1.117 0 .707-.45 1.083-1.4 1.083zM6.557 9.066h.945V6.801c0-1.132.633-1.814 1.419-1.814.222 0 .366.034.49.084v-.98a1.967 1.967 0 00-.505-.059c-.598 0-1.113.361-1.394 1.049v-.96h-.955zM11.695 9.155c.702 0 1.261-.272 1.696-.92l.065.831h.81V6.09c0-1.305-.736-2.057-2.022-2.057-.885 0-1.538.332-2.062 1.058l.752.54c.291-.48.727-.742 1.27-.742.708 0 1.128.395 1.133 1.27h-1.31c-1.336 0-2.038.564-2.038 1.499 0 .935.648 1.498 1.706 1.498zm.198-.83c-.589 0-.9-.282-.9-.713 0-.445.336-.741 1.073-.741h1.27v.123c0 .643-.588 1.33-1.443 1.33zM17.654 9.155c1.048 0 1.77-.504 2.092-1.419l-.905-.341c-.163.554-.584.895-1.138.895-.806 0-1.34-.628-1.34-1.701 0-1.093.55-1.691 1.306-1.691.554 0 .96.326 1.137.9l.93-.361c-.366-.955-1.083-1.405-2.067-1.405-1.444 0-2.324 1.004-2.324 2.567 0 1.557.865 2.556 2.309 2.556zM20.79 9.066h.973V6.233c0-.89.465-1.34 1.217-1.34.648 0 1.068.42 1.068 1.25v2.923h.98V6.02c0-1.28-.693-1.988-1.766-1.988-.579 0-1.108.238-1.499.772v-2.73h-.974zM27.005 3.167a.576.576 0 00.579-.579.584.584 0 00-.579-.583.585.585 0 00-.583.583c0 .322.257.579.583.579zm-.49 5.9h.975V4.12h-.974zM31.743 2.074v6.992h2.492c1.459 0 2.329-.796 2.329-2.027 0-.786-.415-1.414-1.147-1.701.534-.322.8-.816.8-1.469 0-1.132-.855-1.795-2.16-1.795zm2.447 2.923h-1.429V2.989h1.276c.801 0 1.231.39 1.231.999 0 .662-.42 1.009-1.078 1.009zm.104 3.15h-1.533v-2.27h1.573c.756 0 1.216.43 1.216 1.122 0 .767-.44 1.148-1.256 1.148zM37.86 9.066h.974V6.233c0-.89.465-1.34 1.216-1.34.648 0 1.068.42 1.068 1.25v2.923h.98V6.02c0-1.28-.693-1.988-1.766-1.988-.578 0-1.108.238-1.498.772v-2.73h-.974zM44.862 9.155c.702 0 1.26-.272 1.696-.92l.064.831h.811V6.09c0-1.305-.737-2.057-2.022-2.057-.885 0-1.538.332-2.062 1.058l.751.54c.292-.48.727-.742 1.271-.742.707 0 1.128.395 1.133 1.27h-1.31c-1.336 0-2.038.564-2.038 1.499 0 .935.648 1.498 1.706 1.498zm.198-.83c-.589 0-.9-.282-.9-.713 0-.445.336-.741 1.073-.741h1.27v.123c0 .643-.588 1.33-1.443 1.33zM50.554 9.155c.306 0 .628-.064.79-.128v-.885c-.167.074-.41.153-.642.153-.406 0-.663-.193-.663-.767v-2.6h1.3V4.12h-1.3V2.247h-.979v1.874h-.796v.806h.796v2.745c0 .94.544 1.483 1.494 1.483zM52.952 3.167a.576.576 0 00.579-.579.584.584 0 00-.579-.583.585.585 0 00-.584.583c0 .322.258.579.584.579zm-.49 5.9h.975V4.12h-.975zM56.255 9.155c.703 0 1.261-.272 1.696-.92l.065.831h.81V6.09c0-1.305-.736-2.057-2.022-2.057-.885 0-1.538.332-2.062 1.058l.752.54c.292-.48.727-.742 1.27-.742.708 0 1.128.395 1.133 1.27h-1.31c-1.336 0-2.038.564-2.038 1.499 0 .935.648 1.498 1.706 1.498zm.198-.83c-.588 0-.9-.282-.9-.713 0-.445.336-.741 1.073-.741h1.271v.123c0 .643-.588 1.33-1.444 1.33z"/></g></svg>