<svg width="152.895" height="9.829" viewBox="0 0 152.895 9.829" xmlns="http://www.w3.org/2000/svg"><g fill="#fff"><path d="M3.368 8.089c1.324 0 2.185-.581 2.67-1.74l-.835-.34c-.353.86-.93 1.232-1.817 1.232-1.28 0-1.988-.878-1.988-2.342 0-1.441.734-2.298 2.001-2.298.944 0 1.503.411 1.787 1.215l.843-.332c-.472-1.15-1.32-1.73-2.63-1.73-1.83 0-2.936 1.25-2.936 3.18 0 1.953 1.132 3.155 2.905 3.155zM10.226 1.832V8.01h.9V5.306h2.923V8.01h.9V1.832h-.9v2.661h-2.923v-2.66zM22.191 8.089c1.988 0 2.91-1.486 2.91-3.168 0-1.682-.922-3.167-2.91-3.167-1.987 0-2.91 1.485-2.91 3.167 0 1.682.923 3.168 2.91 3.168zm0-.813c-1.415 0-1.974-1.096-1.974-2.355 0-1.258.559-2.355 1.974-2.355 1.416 0 1.975 1.097 1.975 2.355 0 1.259-.559 2.355-1.975 2.355zM34.812 8.01l-2.503-3.718 2.416-2.46h-1.171l-3.22 3.351v-3.35h-.9V8.01h.9V6.302l1.367-1.39L33.69 8.01zM38.856 1.832V8.01h.9V5.306h2.923V8.01h.9V1.832h-.9v2.661h-2.923v-2.66zM50.655 1.832h-.672l-2.39 6.178h.952l.52-1.398h2.495l.515 1.398h.975zM49.327 5.84l.983-2.748.992 2.748zM58.002 2.65v5.36h.9V2.65h2.028v-.818h-4.955v.817zM64.943 1.832V8.01h.9V5.306h2.923V8.01h.9V1.832h-.9v2.661h-2.923v-2.66zM76.908 8.089c1.988 0 2.91-1.486 2.91-3.168 0-1.682-.922-3.167-2.91-3.167-1.987 0-2.91 1.485-2.91 3.167 0 1.682.923 3.168 2.91 3.168zm0-.813c-1.415 0-1.974-1.096-1.974-2.355 0-1.258.559-2.355 1.974-2.355 1.416 0 1.975 1.097 1.975 2.355 0 1.259-.559 2.355-1.975 2.355zM84.15 1.832V8.01h.861V3.073l1.752 4.937h.844l1.756-4.937V8.01h.865V1.832h-1.25l-1.786 5.125L85.4 1.832zM94.963 1.832V8.01h4.076v-.834h-3.176V5.297h2.914v-.813h-2.914V2.65h3.176v-.817zM103.909 8.089c.306 0 .55-.25.55-.55a.54.54 0 00-.55-.538.538.538 0 00-.542.537c0 .302.236.55.542.55zM111.448 8.089c1.324 0 2.185-.581 2.67-1.74l-.835-.34c-.354.86-.93 1.232-1.817 1.232-1.28 0-1.988-.878-1.988-2.342 0-1.441.734-2.298 2-2.298.944 0 1.504.411 1.788 1.215l.843-.332c-.472-1.15-1.32-1.73-2.63-1.73-1.83 0-2.936 1.25-2.936 3.18 0 1.953 1.131 3.155 2.905 3.155zM120.774 8.089c1.988 0 2.91-1.486 2.91-3.168 0-1.682-.922-3.167-2.91-3.167-1.987 0-2.91 1.485-2.91 3.167 0 1.682.923 3.168 2.91 3.168zm0-.813c-1.415 0-1.974-1.096-1.974-2.355 0-1.258.559-2.355 1.974-2.355 1.416 0 1.975 1.097 1.975 2.355 0 1.259-.559 2.355-1.975 2.355zM128.017 1.832V8.01h.86V3.073l1.752 4.937h.844l1.756-4.937V8.01h.865V1.832h-1.25l-1.786 5.125-1.792-5.125z"/></g></svg>